<svg xmlns="http://www.w3.org/2000/svg" width="38.219" fill="#8a8885" height="42.065" viewBox="0 0 38.219 42.065">
  <g id="Group_2" data-name="Group 2" transform="translate(-70 -523.123)">
    <g id="Group_1" data-name="Group 1" transform="translate(70 523.123)">
      <path id="Path_1" data-name="Path 1" d="M-605.533,349.948h.58c.8,0,24.678.008,25.48-.006.2,0,.492-.011.582-.133a1.316,1.316,0,0,0,.281-.809c-.037-.407-.4-.532-.782-.534-1.185,0-25.445,0-26.631,0-.786,0-1.015.234-1.015,1.038,0,12.909,0,21.622,0,34.531,0,.835.21,1.037,1.057,1.037H-588.3a2.713,2.713,0,0,0,.366-.006.7.7,0,0,0,.678-.729.679.679,0,0,0-.667-.73,5.807,5.807,0,0,0-.627-.018h-16.978Z" transform="translate(607.038 -348.46)" fill="#959595"/>
      <path id="Path_2" data-name="Path 2" d="M-360.013,349.926v.756c0,8.091,0,11.987,0,20.078a4.7,4.7,0,0,0,.007.523.634.634,0,0,0,.655.612c.538.034.793-.275.793-.967q0-8.135,0-16.27c0-3.139,0-2.082,0-5.221,0-.753-.241-.991-1-1-.488,0-.976,0-1.464,0-.836,0-1.673-.013-2.509.008a.713.713,0,0,0-.752.762.691.691,0,0,0,.742.71c.191.01.383,0,.575,0Z" transform="translate(389.746 -348.438)" fill="#959595"/>
      <path id="Path_3" data-name="Path 3" d="M-557.738,412.193c-.625-.636-1.218-1.246-1.819-1.848a.8.8,0,0,0-1.155-.127c-.33.312-.29.782.114,1.19q1.067,1.078,2.144,2.147c.56.558.9.561,1.456.005q1.908-1.9,3.807-3.813c.121-.122.3-.27.3-.408.005-.286,0-.677-.17-.832s-.564-.126-.851-.1c-.139.015-.263.213-.386.336C-555.43,409.88-556.562,411.014-557.738,412.193Z" transform="translate(565.769 -402.099)" fill="#959595"/>
      <path id="Path_4" data-name="Path 4" d="M-557.787,576.153c-.64-.652-1.221-1.253-1.812-1.845a.792.792,0,0,0-1.191-.1c-.3.324-.256.743.144,1.147q1.086,1.1,2.18,2.183c.51.507.871.513,1.38.01.732-.722,1.456-1.453,2.182-2.181.591-.592,1.193-1.174,1.77-1.779.474-.5.329-1.23-.273-1.3a1.151,1.151,0,0,0-.815.31C-555.411,573.747-556.568,574.93-557.787,576.153Z" transform="translate(565.816 -548.807)" fill="#959595"/>
      <path id="Path_5" data-name="Path 5" d="M-557.735,493.58c-.078-.029-.119-.032-.141-.054-.6-.587-1.194-1.172-1.782-1.767a.731.731,0,0,0-1.068-.122.764.764,0,0,0,.035,1.188c.731.748,1.473,1.485,2.216,2.222.516.511.861.508,1.377-.006q1.463-1.458,2.921-2.922c.37-.37.749-.731,1.106-1.113a.7.7,0,0,0,.015-1.032.739.739,0,0,0-1.035-.033c-.147.122-.276.266-.411.4Z" transform="translate(565.821 -474.925)" fill="#959595"/>
      <path id="Path_6" data-name="Path 6" d="M-454.767,428.888c1.5,0,2.994,0,4.491,0,.378,0,.7-.074.843-.465.2-.527-.186-1-.837-1q-4.491-.009-8.981,0c-.6,0-.917.276-.906.763.01.47.295.7.9.7C-457.761,428.89-456.264,428.888-454.767,428.888Z" transform="translate(475.564 -419.138)" fill="#959595"/>
      <path id="Path_7" data-name="Path 7" d="M-454.811,511.157h4.6c.418,0,.761-.19.778-.6a1.191,1.191,0,0,0-.37-.772c-.126-.126-.426-.1-.648-.1-1.846-.007-3.691,0-5.537,0-1.1,0-2.194-.006-3.291,0-.565,0-.853.238-.885.676-.036.493.283.8.863.8C-457.806,511.16-456.309,511.156-454.811,511.157Z" transform="translate(475.574 -492.76)" fill="#959595"/>
      <path id="Path_8" data-name="Path 8" d="M-457.091,593.346c.748,0,1.5,0,2.244,0,.5,0,.793-.262.8-.687a.725.725,0,0,0-.8-.765q-2.27-.013-4.54,0a.705.705,0,0,0-.775.729.681.681,0,0,0,.768.721C-458.622,593.353-457.857,593.346-457.091,593.346Z" transform="translate(475.561 -566.351)" fill="#959595"/>
      <path id="Path_9" data-name="Path 9" d="M-401.549,599.753a22.384,22.384,0,0,1-2.406-.637,8.732,8.732,0,0,1-5.516-9.055,8.792,8.792,0,0,1,7.419-7.76,8.784,8.784,0,0,1,9.909,7.1,8.775,8.775,0,0,1-7.126,10.214c-.238.042-.474.092-.711.138Zm.806-16.047a7.271,7.271,0,0,0-7.288,7.163,7.3,7.3,0,0,0,7.233,7.388A7.3,7.3,0,0,0-393.484,591,7.267,7.267,0,0,0-400.743,583.706Z" transform="translate(430.239 -557.688)" fill="#959595"/>
      <path id="Path_10" data-name="Path 10" d="M-605.533,349.948v33.638h16.978a5.807,5.807,0,0,1,.627.018.679.679,0,0,1,.667.73.7.7,0,0,1-.678.729,2.713,2.713,0,0,1-.366.006H-605.98c-.847,0-1.057-.2-1.057-1.037,0-12.909,0-21.622,0-34.531,0-.8.229-1.036,1.015-1.038,1.185,0,25.445,0,26.631,0,.378,0,.745.127.782.534a1.316,1.316,0,0,1-.281.809c-.09.123-.381.13-.582.133-.8.014-24.678.006-25.48.006Z" transform="translate(607.038 -348.46)" fill="#959595"/>
      <path id="Path_11" data-name="Path 11" d="M-360.013,349.926h-2.954c-.192,0-.384.005-.575,0a.691.691,0,0,1-.742-.71.713.713,0,0,1,.752-.762c.836-.022,1.673-.008,2.509-.008.488,0,.976,0,1.464,0,.761,0,1,.242,1,1,0,3.139,0,2.082,0,5.221q0,8.135,0,16.27c0,.692-.255,1-.793.967a.634.634,0,0,1-.655-.612,4.7,4.7,0,0,1-.007-.523c0-8.091,0-11.987,0-20.078Z" transform="translate(389.746 -348.438)" fill="#959595"/>
      <path id="Path_12" data-name="Path 12" d="M-557.738,412.193c1.176-1.178,2.308-2.313,3.441-3.445.123-.123.247-.321.386-.336.286-.031.674-.063.851.1s.176.546.17.832c0,.139-.181.287-.3.408q-1.9,1.91-3.807,3.813c-.557.555-.9.552-1.456-.005q-1.075-1.07-2.144-2.147c-.4-.408-.443-.878-.114-1.19a.8.8,0,0,1,1.155.127C-558.955,410.946-558.363,411.557-557.738,412.193Z" transform="translate(565.769 -402.099)" fill="#959595"/>
      <path id="Path_13" data-name="Path 13" d="M-557.787,576.153c1.219-1.222,2.376-2.406,3.567-3.554a1.151,1.151,0,0,1,.815-.31c.6.071.747.8.273,1.3-.577.605-1.179,1.187-1.77,1.779-.727.728-1.45,1.459-2.182,2.181-.509.5-.87.5-1.38-.01q-1.094-1.088-2.18-2.183c-.4-.4-.448-.823-.144-1.147a.792.792,0,0,1,1.191.1C-559.007,574.9-558.426,575.5-557.787,576.153Z" transform="translate(565.816 -548.807)" fill="#959595"/>
      <path id="Path_14" data-name="Path 14" d="M-557.735,493.58l3.232-3.237c.135-.136.264-.28.411-.4a.739.739,0,0,1,1.035.033.7.7,0,0,1-.015,1.032c-.357.382-.736.743-1.106,1.113q-1.46,1.461-2.921,2.922c-.517.515-.862.517-1.377.006-.743-.736-1.485-1.473-2.216-2.222a.764.764,0,0,1-.035-1.188.731.731,0,0,1,1.068.122c.588.595,1.186,1.18,1.782,1.767C-557.854,493.548-557.813,493.551-557.735,493.58Z" transform="translate(565.821 -474.925)" fill="#959595"/>
      <path id="Path_15" data-name="Path 15" d="M-454.767,428.888c-1.5,0-2.994,0-4.491,0-.606,0-.89-.228-.9-.7-.011-.487.3-.762.906-.763q4.491-.005,8.981,0c.651,0,1.034.472.837,1-.147.392-.464.467-.843.465C-451.773,428.883-453.27,428.888-454.767,428.888Z" transform="translate(475.564 -419.138)" fill="#959595"/>
      <path id="Path_16" data-name="Path 16" d="M-454.811,511.157c-1.5,0-2.995,0-4.492,0-.581,0-.9-.309-.863-.8.032-.439.321-.672.885-.676,1.1-.009,2.194,0,3.291,0,1.846,0,3.691,0,5.537,0,.222,0,.522-.022.648.1a1.191,1.191,0,0,1,.37.772c-.017.413-.36.6-.778.6h-4.6Z" transform="translate(475.574 -492.76)" fill="#959595"/>
      <path id="Path_17" data-name="Path 17" d="M-457.091,593.346c-.765,0-1.531.007-2.3,0a.681.681,0,0,1-.768-.721.705.705,0,0,1,.775-.729q2.27-.015,4.54,0a.725.725,0,0,1,.8.765c-.012.426-.305.683-.8.688C-455.6,593.35-456.343,593.346-457.091,593.346Z" transform="translate(475.561 -566.351)" fill="#959595"/>
      <path id="Path_18" data-name="Path 18" d="M-370.008,641.985l4.484-4.5c.111-.111.217-.227.333-.331a.748.748,0,0,1,1.077-.066.747.747,0,0,1-.025,1.115c-.505.528-1.03,1.038-1.547,1.555q-1.809,1.81-3.619,3.62c-.549.547-.869.549-1.413.007q-1.444-1.437-2.879-2.882c-.424-.427-.457-.85-.109-1.183s.734-.291,1.148.118C-371.719,640.263-370.89,641.1-370.008,641.985Z" transform="translate(398.392 -606.632)" fill="#959595"/>
    </g>
  </g>
</svg>
