<?xml version="1.0" encoding="utf-8"?>
<!-- Generator: Adobe Illustrator 24.3.0, SVG Export Plug-In . SVG Version: 6.00 Build 0)  -->
<svg version="1.1" fill="#8a8885" id="Layer_1" xmlns="http://www.w3.org/2000/svg" xmlns:xlink="http://www.w3.org/1999/xlink" x="0px" y="0px"
	 viewBox="0 0 128 160" style="enable-background:new 0 0 128 160;" xml:space="preserve">
<path d="M38,88H2c-1.1,0-2,0.9-2,2v36c0,1.1,0.9,2,2,2h36c1.1,0,2-0.9,2-2V90C40,88.9,39.1,88,38,88z M36,124H4V92h32V124z"/>
<path d="M126,0H18c-1.1,0-2,0.9-2,2v72c0,1.1,0.9,2,2,2h34v34c0,1.1,0.9,2,2,2h72c1.1,0,2-0.9,2-2V2C128,0.9,127.1,0,126,0z M56,40
	h32v32H56V40z M92,40h32v32H92V40z M124,36H92V4h32V36z M88,36H56V4h32V36z M20,4h32v32H20V4z M20,40h32v32H20V40z M56,76h32v32H56
	V76z M124,108H92V76h32V108z"/>
</svg>
