<?xml version="1.0" encoding="utf-8"?>
<!-- Generator: Adobe Illustrator 24.3.0, SVG Export Plug-In . SVG Version: 6.00 Build 0)  -->
<svg version="1.1"  fill="#8a8885" id="Layer_1" xmlns="http://www.w3.org/2000/svg" xmlns:xlink="http://www.w3.org/1999/xlink" x="0px" y="0px"
	 viewBox="0 0 100 125" style="enable-background:new 0 0 100 125;" xml:space="preserve">
<path d="M63.5,45.5c-2.5,0-4.5,2-4.5,4.5s2,4.5,4.5,4.5s4.5-2,4.5-4.5S66,45.5,63.5,45.5L63.5,45.5z"/>
<path d="M54.5,23c14.9,0,27,12.1,27,27s-12.1,27-27,27s-27-12.1-27-27S39.6,23,54.5,23 M54.5,18.5C37.1,18.5,23,32.6,23,50
	s14.1,31.5,31.5,31.5S86,67.4,86,50S71.9,18.5,54.5,18.5L54.5,18.5z"/>
<path d="M50,9.5c22.3,0,40.5,18.2,40.5,40.5S72.3,90.5,50,90.5S9.5,72.3,9.5,50S27.7,9.5,50,9.5 M50,5C25.1,5,5,25.1,5,50
	s20.1,45,45,45s45-20.1,45-45S74.9,5,50,5L50,5z"/>
<path d="M59,36.5c7.4,0,13.5,6.1,13.5,13.5S66.4,63.5,59,63.5S45.5,57.4,45.5,50S51.6,36.5,59,36.5 M59,32c-9.9,0-18,8.1-18,18
	s8.1,18,18,18s18-8.1,18-18S68.9,32,59,32L59,32z"/>
</svg>
